<svg xmlns="http://www.w3.org/2000/svg" viewBox="0 0 380.486 341" enable-background="new 0 0 380.486 341"><g fill="#010202"><path class="path" d="M148.1 158.732l-17.652-41.579v-40.916l3.824-3.824v-3.331h-52.522v3.331l3.824 3.824v40.916l-49.043 115.518-1.19 8.634 1.19 7.683s9.156 17.375 65.331 18.655l46.238-108.911zM322.387 224.671l-49.042-115.518v-40.916l3.824-3.824v-3.331h-52.522999999999996v3.331l3.824 3.824v40.916l-17.357 40.883v7.34l43.436 102.312c58.409-.812 67.838-18.7 67.838-18.7l1.19-7.683-1.19-8.634z"/></g><g fill="#010202"><path class="path" d="M41.452 113.335s33.276-68.767 69.173-94.104c-21.452-8.06-45.208 14.266-69.173 94.104zM254.116 19.248c54.198 32.485 122.344 139.767 126.197 146.258-.819-2.584-13.915-43.546-30.771-75.902-37.155-71.322-69.164-84.686-95.426-70.356zM211.855 14.498c-15.359 10.51-25.802 26.453-32.617 46.242-4.081-10.247-8.937-20.297-14.727-29.91-15.786-26.213-35.191-24.795-53.885-11.599 20.553 7.721 38.988 43.336 53.474 82.99h-14.893v3.893l4.469 4.469v47.812l-57.308 134.985-1.391 10.09 1.391 8.978s11.408 21.652 82.95 21.884v.005l.576-.003.576.003v-.005c71.543-.232 82.95-21.884 82.95-21.884l1.391-8.978-1.391-10.09-57.308-134.987v-47.812l4.469-4.469v-3.893h-12.586c13.85-35.388 32.7-70.193 56.12-82.972-15.963-9.567-30.717-12.647-42.26-4.749zM380.313 165.506l.041.13c.192.285.172.228-.041-.13z"/></g></svg>