<svg xmlns="http://www.w3.org/2000/svg" viewBox="0 0 595.28 595.28" enable-background="new 0 0 595.28 595.28"><path class="path" fill="#010202" d="M476.044 420.33l-58.131-136.926v-48.499l4.533-4.533v-3.949h-62.257000000000005v3.949l4.533 4.533v48.499l-9.892 23.299 65.29 153.788c47.497-4.847 55.924-20.82 55.924-20.82l1.411-9.107-1.411-10.234zM234.893 306.888l-9.97-23.484v-48.499l4.533-4.533v-3.949h-62.257000000000005v3.949l4.533 4.533v48.499l-58.131 136.926-1.411 10.234 1.411 9.107s8.444 16.007 56.074 20.836l65.218-153.619z"/><g fill="#1E1E1C"><path class="path" d="M288.694 116.726c-4.981-11.265-10.643-22.32-17.085-33.018-11.868-19.706-25.884-29.698-41.661-29.698-9.528 0-19.94 3.606-30.998 10.727 15.157 7.577 30.461 25.212 45.556 52.515 9.589 17.344 19.109 38.577 28.427 63.339.752-5.581 1.604-10.991 2.557-16.246 3.229-17.793 7.617-33.637 13.204-47.619zM102.138 178.538c17.575-31.681 50.496-85.047 86.142-112.38-2.227-.497-4.446-.747-6.636-.747-27.429 0-54.129 38.024-79.506 113.127zM589.023 282.259l.061.193c.285.423.255.338-.061-.193z"/><path d="M290.046 188.353h-39.285 12.547 1.709 26.739z"/><path class="path" d="M290.046 182.677h30.702c20.324-50.516 47.513-99.166 81.01-117.447-23.686-14.195-45.576-18.764-62.703-7.044-35.898 24.563-53.706 69.12-60.865 124.492h11.856zM401.758 65.229c80.423 48.199 181.547 207.397 187.265 217.029-1.216-3.835-20.648-64.616-45.659-112.627-55.136-105.836-102.636-125.67-141.606-104.402z"/></g><path class="path" fill="#010202" d="M333.599 271.705v-70.945l6.631-6.631v-5.776h-91.072v5.776l6.631 6.631v70.946l-85.036 200.301-2.064 14.971 2.064 13.322s16.927 32.128 123.087 32.473v.008l.855-.004.855.004v-.008c106.159-.345 123.087-32.473 123.087-32.473l2.064-13.322-2.064-14.971-85.038-200.302z"/></svg>